<?xml version="1.0" encoding="UTF-8"?>
<svg id="Camada_1" xmlns="http://www.w3.org/2000/svg" version="1.1" viewBox="0 0 777.84 2158.27">
  <!-- Generator: Adobe Illustrator 30.3.0, SVG Export Plug-In . SVG Version: 2.1.3 Build 182)  -->
  <defs>
    <style>
      .st0 {
        fill: #fff8f5;
      }
    </style>
  </defs>
  <path class="st0" d="M261.24,185.07c-63.91,51.02-113.02,120.95-142.03,202.25-60.23,168.76-25.07,358.42,85.5,461.21,16.06,14.93,32.42,27.92,49.02,39.01,40.52,144.25,201.29,211.9,270.07,247.63,1.29.67,2.51,1.31,3.76,1.96,88.67,46.52,160.8,96.57,166.07,239.68,2,54.25-11.69,109.37-36.56,158.58-26.96-124.7-120.24-197.87-191.72-221.17-84.52-27.55-165.15-3.15-215.98,62.49-24.53,31.67-42.91,75.64-46.83,115.25-4.13,41.67,8.21,89.91,28.86,125.26,54.91,93.97,173.4,113.75,253.11,88.71,63.39-19.92,120.99-65.8,162.2-129.19,1.56-2.4,3.08-4.8,4.58-7.23,3.85,33.24,3.15,69.9-3.49,110.03-32.09,194.06-138.95,284.21-224.39,333.24-92.84,53.28-182.22,54.74-183.08,54.81l2.06,26.17c3.61-.28,89.47-7.57,184.46-61.96,55.83-31.97,103-73.64,140.19-123.85,20.06-27.08,37.22-56.68,51.41-88.64,18.67-42.04,32.2-88.15,40.44-137.94,7.79-47.13,7.64-89.64,1.62-127.61,30.9-55.9,46.55-117.97,44.36-177.36-6.06-164.57-100.4-212.75-200.29-263.75-62.79-32.06-127.71-65.22-178.11-129.01-19.51-24.69-33.91-51.4-43.85-78.87,27.07,14.2,54.7,23.38,82.72,27.44,48.71,7.06,96.63-2.04,138.57-26.33,80.05-46.36,122.33-137.4,102.83-221.38-2.72-11.7-6.73-22.86-11.86-33.35h0s0,0-.01-.01c-22.28-45.53-65.93-78.35-118.84-87.59-54.57-11.58-107.66,6.35-140.93,30.62-47.77,34.86-115.71,137.43-85.46,276.68-12.63-9.04-25.07-19.22-37.26-30.55-107.38-99.83-141.41-282.66-79.01-445.98,60.27-157.75,203-269.45,392.02-281.45l-1.56-24.52c-101.96,6.47-190.3,39.01-262.57,96.71ZM648.63,1551.12c-38.66,67.98-98.84,122.52-167.51,144.1-75.56,23.75-183.92.99-235.89-87.95-30.31-51.87-32.14-116.79-7.29-172.75,6.45-14.52,14.7-28.45,24.72-41.38,47.93-61.88,122.92-85.69,200.61-63.68,71.82,20.34,163.21,93.46,185.36,221.66ZM595.76,687.04c18.4,79.21-21.7,165.2-97.51,209.11-67.21,38.93-146.17,35.41-220.94-7.46-24.15-81.24-11.09-166.91,22.94-225.16,38.74-66.33,102.36-99.8,170.19-89.53,62.38,9.44,111.57,53.81,125.32,113.04Z"/>
</svg>