<?xml version="1.0" encoding="UTF-8"?>
<svg id="Camada_1" xmlns="http://www.w3.org/2000/svg" version="1.1" viewBox="0 0 471.85 2158.27">
  <!-- Generator: Adobe Illustrator 30.3.0, SVG Export Plug-In . SVG Version: 2.1.3 Build 182)  -->
  <defs>
    <style>
      .st0 {
        fill: #b68282;
      }
    </style>
  </defs>
  <path class="st0" d="M185.65,63.17c-11.52,15.05-22.08,30.82-31.52,47.27-11.29,19.68-20.99,40.27-29.19,61.42-8.02,20.7-14.54,41.98-19.66,63.58-5.13,21.64-8.84,43.6-11.38,65.69-2.5,21.79-3.79,43.72-4.03,65.65-.24,21.82.57,43.65,2.29,65.4,1.69,21.43,4.27,42.8,7.6,64.04,3.2,20.4,7.12,40.68,11.7,60.81,4.36,19.17,9.33,38.2,14.87,57.06,5.16,17.57,10.82,35,16.99,52.24,5.67,15.84,11.78,31.51,18.34,46.99,5.65,13.33,11.65,26.52,18.12,39.48,5.49,10.99,11.39,21.75,17.64,32.32-2.61,3.15-5.12,6.39-7.51,9.7-15.61,21.6-29.83,45.19-39.13,70.06-9.37,25.06-18.14,50.2-23.47,76.42-5.36,26.35-9.12,54.68-10.5,81.54-1.37,26.74.51,53.03,3.09,79.68,2.59,26.78,7.8,54.59,15.67,81.46,7.53,25.67,16.39,50.09,26.7,74.78,5.2,12.46,10.85,24.73,17,36.76,6.25,12.21,13.45,23.87,19.87,35.99.32.6.64,1.22.96,1.84-2.4.56-4.78,1.21-7.11,1.97-11.76,3.85-22.98,11.1-27.76,22.97-3.99,9.92-2.87,22.85,5.13,30.53,8.34,8.01,20.68,7.48,29.97,1.42,9.83-6.42,16.11-17.16,16.37-28.92.16-7.35-1.5-14.43-4.07-21.23,4.32-.42,8.66-.55,12.93-.46,10.95.23,21.75,2.27,32.12,5.75,21.27,7.14,40.18,20.39,55.61,36.52,15.98,16.7,28.6,36.83,36.53,58.55,9.13,25,11.52,51.94,9.78,78.37-1.91,29.09-9.14,57.63-18.98,84.99-9.99,27.78-22.82,54.43-36.72,80.44-13.54,25.35-27.93,50.24-41.54,75.55-13.58,25.27-26.38,51.01-36.67,77.81-9.48,24.69-16.77,50.28-19.93,76.59-2.78,23.13-2.36,46.62,1.43,69.61,3.7,22.48,10.92,44.56,22.22,64.38,10.47,18.36,24.56,34.39,41.59,46.89l10.67-14.69c-17.48-12.7-28.04-21.66-40.46-42.06-11.63-19.08-19.92-41.63-22.94-63.73-3.06-22.39-3.35-45.21,0-67.55,3.98-26.6,9.3-51.56,19.46-76.4,10.75-26.27,23.9-51.5,37.5-76.39,13.74-25.14,28.09-49.96,41.31-75.39,13.71-26.38,26.14-53.55,35.57-81.77,9.23-27.61,18.48-58.18,19.52-87.34.93-26.34-1.66-58.26-11.41-82.86-8.73-22.01-21.94-42.01-38.48-58.97-16.06-16.46-38.69-29.87-61.33-34.31-19.78-3.88-34.07-4.25-51.44-1.91-1.7-3.49-3.55-6.91-5.44-10.23-6.69-11.81-13.43-23.54-19.47-35.71-11.79-23.74-21.66-48.41-29.63-73.69-8.05-25.53-14.16-51.66-18.31-78.1-4.12-26.19-6.23-52.7-6.43-79.21-.2-26.62,1.5-53.28,5.3-79.63,3.8-26.35,9.58-52.43,17.37-77.89,7.73-25.28,17.14-50.34,29.77-73.61,5.79-10.66,12.41-21.08,20-30.69,12.61,20.69,26.62,41.1,45.4,56.61,18.61,15.37,37.23,28.33,66.69,29.29,22.24.73,48.27-10.97,59.11-31.18,13.33-24.84,9.53-53.21.29-71.69-11.59-23.18-28.34-33.01-49.75-39.12-27.05-7.73-52.52-1.61-75.36,8.28-17.4,7.53-32.37,19.2-45.09,33.05-5.57-9.55-10.88-19.23-15.83-29.13-6.43-12.85-12.4-25.92-18.03-39.14-.69-1.62-1.19-2.81-2.04-4.85-.77-1.86-1.54-3.73-2.3-5.59-1.53-3.75-3.03-7.51-4.5-11.29-3.11-7.95-6.09-15.94-8.97-23.97-6.14-17.15-11.78-34.49-16.93-51.96-5.52-18.76-10.47-37.68-14.83-56.74-4.6-20.11-8.54-40.38-11.75-60.76-3.28-20.76-5.77-41.65-7.42-62.61-1.7-21.55-2.51-43.17-2.29-64.79.22-21.93,1.49-43.86,3.97-65.65,2.46-21.63,5.46-37.75,10.5-58.93,5.13-21.6,12.52-42.19,22.85-66.93,8.58-20.54,19.52-40.47,31.62-59.15,11.55-17.84,20.71-29.61,31.14-42.95l-12.99-10.61ZM206.82,1368.75c-2.78,8.51-11.32,17-20.33,17.49-4.33.23-8.69-1.48-11.5-5.21-2.79-3.7-3.57-8.48-3.23-13,.82-11.14,9.9-18.89,19.63-22.91,4-1.65,8.19-2.87,12.47-3.74,3.63,8.77,5.88,18.42,2.95,27.36ZM231.33,764.78c19.82-14.01,44.26-22.17,68.65-20.7,21.86,1.31,42.58,11.32,54.82,29.83,10.65,16.1,15.25,36.85,9.57,55.37-6.1,19.91-24.55,32.54-44.84,35.04-22.97,2.83-45.93-5.05-63.87-19.26-20.07-15.89-34.54-37.42-47.64-59.12,6.97-7.89,14.69-15.07,23.3-21.16Z"/>
</svg>